<svg width="153" height="24" viewBox="0 0 153 24" fill="none" xmlns="http://www.w3.org/2000/svg">
<path d="M0.312 0.599998H3.832V10.04L8.312 0.599998H11.832L7.64 8.824L11.896 23H8.216L5.24 13.016L3.832 15.864V23H0.312V0.599998ZM15.962 0.599998H20.73L24.378 23H20.858L20.218 18.552V18.616H16.218L15.578 23H12.314L15.962 0.599998ZM19.802 15.576L18.234 4.504H18.17L16.634 15.576H19.802ZM25.7658 0.599998H30.9818C32.7951 0.599998 34.1178 1.02667 34.9498 1.88C35.7818 2.712 36.1978 4.00267 36.1978 5.752V7.128C36.1978 9.45333 35.4298 10.9253 33.8938 11.544V11.608C34.7471 11.864 35.3444 12.3867 35.6858 13.176C36.0484 13.9653 36.2298 15.0213 36.2298 16.344V20.28C36.2298 20.92 36.2511 21.4427 36.2938 21.848C36.3364 22.232 36.4431 22.616 36.6138 23H33.0298C32.9018 22.6373 32.8164 22.296 32.7738 21.976C32.7311 21.656 32.7098 21.08 32.7098 20.248V16.152C32.7098 15.128 32.5391 14.4133 32.1978 14.008C31.8778 13.6027 31.3124 13.4 30.5018 13.4H29.2858V23H25.7658V0.599998ZM30.5658 10.2C31.2698 10.2 31.7924 10.0187 32.1338 9.656C32.4964 9.29333 32.6778 8.68533 32.6778 7.832V6.104C32.6778 5.29333 32.5284 4.70667 32.2298 4.344C31.9524 3.98133 31.5044 3.8 30.8858 3.8H29.2858V10.2H30.5658ZM38.352 0.599998H47.952V3.8H41.872V9.72H46.704V12.92H41.872V19.8H47.952V23H38.352V0.599998ZM49.657 0.599998H53.177V19.8H58.969V23H49.657V0.599998ZM60.337 0.599998H63.857V23H60.337V0.599998ZM66.1733 0.599998H70.5893L74.0133 14.008H74.0773V0.599998H77.2133V23H73.5973L69.3733 6.648H69.3093V23H66.1733V0.599998ZM88.8905 23.32C87.1838 23.32 85.8932 22.84 85.0185 21.88C84.1438 20.8987 83.7065 19.5013 83.7065 17.688V16.408H87.0345V17.944C87.0345 19.3947 87.6425 20.12 88.8585 20.12C89.4558 20.12 89.9038 19.9493 90.2025 19.608C90.5225 19.2453 90.6825 18.6693 90.6825 17.88C90.6825 16.9413 90.4692 16.12 90.0425 15.416C89.6158 14.6907 88.8265 13.8267 87.6745 12.824C86.2238 11.544 85.2105 10.392 84.6345 9.368C84.0585 8.32267 83.7705 7.14933 83.7705 5.848C83.7705 4.07733 84.2185 2.712 85.1145 1.752C86.0105 0.770665 87.3118 0.279999 89.0185 0.279999C90.7038 0.279999 91.9732 0.770665 92.8265 1.752C93.7012 2.712 94.1385 4.09867 94.1385 5.912V6.84H90.8105V5.688C90.8105 4.92 90.6612 4.36533 90.3625 4.024C90.0638 3.66133 89.6265 3.48 89.0505 3.48C87.8772 3.48 87.2905 4.19467 87.2905 5.624C87.2905 6.43467 87.5038 7.192 87.9305 7.896C88.3785 8.6 89.1785 9.45333 90.3305 10.456C91.8025 11.736 92.8158 12.8987 93.3705 13.944C93.9252 14.9893 94.2025 16.216 94.2025 17.624C94.2025 19.4587 93.7438 20.8667 92.8265 21.848C91.9305 22.8293 90.6185 23.32 88.8905 23.32ZM98.6528 3.8H94.9728V0.599998H105.853V3.8H102.173V23H98.6528V3.8ZM107.237 0.599998H116.837V3.8H110.757V9.72H115.589V12.92H110.757V19.8H116.837V23H107.237V0.599998ZM118.542 0.599998H123.726C125.475 0.599998 126.787 1.06933 127.662 2.008C128.537 2.94667 128.974 4.32267 128.974 6.136V8.344C128.974 10.1573 128.537 11.5333 127.662 12.472C126.787 13.4107 125.475 13.88 123.726 13.88H122.062V23H118.542V0.599998ZM123.726 10.68C124.302 10.68 124.729 10.52 125.006 10.2C125.305 9.88 125.454 9.336 125.454 8.568V5.912C125.454 5.144 125.305 4.6 125.006 4.28C124.729 3.96 124.302 3.8 123.726 3.8H122.062V10.68H123.726ZM132.161 0.599998H136.929L140.577 23H137.057L136.417 18.552V18.616H132.417L131.777 23H128.513L132.161 0.599998ZM136.001 15.576L134.433 4.504H134.369L132.833 15.576H136.001ZM141.964 0.599998H146.38L149.804 14.008H149.868V0.599998H153.004V23H149.388L145.164 6.648H145.1V23H141.964V0.599998Z" fill="#C7C7C7"/>
</svg>
